G04 Layer_Color=2752767*
%FSLAX25Y25*%
%MOIN*%
G70*
G01*
G75*
%ADD17C,0.00394*%
%ADD18C,0.00787*%
%ADD19C,0.00197*%
%ADD72C,0.00200*%
%ADD73C,0.00267*%
%ADD74C,0.00133*%
D17*
X588091Y325672D02*
G03*
X588091Y325672I-35925J0D01*
G01*
X544522Y282267D02*
X552396D01*
X544522Y277345D02*
Y282267D01*
Y277345D02*
X552396D01*
Y282267D01*
X529938D02*
X537812D01*
X529938Y277345D02*
Y282267D01*
Y277345D02*
X537812D01*
Y282267D01*
X515354D02*
X523228D01*
X515354Y277345D02*
Y282267D01*
Y277345D02*
X523228D01*
Y282267D01*
X441525Y240190D02*
Y246489D01*
X454123D01*
Y240190D02*
Y246489D01*
X441525Y240190D02*
X454123D01*
X466060Y267510D02*
X470981D01*
X466060D02*
Y275384D01*
X470981D01*
Y267510D02*
Y275384D01*
X463796Y282399D02*
Y290273D01*
X458875D02*
X463796D01*
X458875Y282399D02*
Y290273D01*
Y282399D02*
X463796D01*
X466158Y248497D02*
Y260899D01*
Y248497D02*
X472458D01*
Y260899D01*
X466158D02*
X472458D01*
X437433Y243208D02*
Y251869D01*
X431724Y243208D02*
Y251869D01*
Y243208D02*
X437433D01*
X431724Y251869D02*
X437433D01*
X439353Y258185D02*
Y270587D01*
X433054D02*
X439353D01*
X433054Y258185D02*
Y270587D01*
Y258185D02*
X439353D01*
X443110Y266457D02*
X448110Y271457D01*
X443110D02*
X462402D01*
Y256102D02*
Y271457D01*
X443110Y256102D02*
X462402D01*
X443110D02*
Y271457D01*
X442345Y283454D02*
X447267D01*
X442345D02*
Y291328D01*
X447267D01*
Y283454D02*
Y291328D01*
X455315Y283375D02*
Y291249D01*
X450394D02*
X455315D01*
X450394Y283375D02*
Y291249D01*
Y283375D02*
X455315D01*
X548720Y212008D02*
Y236496D01*
X522146Y212008D02*
Y236496D01*
X548720D01*
X522146Y212008D02*
X548720D01*
X529331Y246555D02*
X553819D01*
X529331Y273130D02*
X553819D01*
Y246555D02*
Y273130D01*
X529331Y246555D02*
Y273130D01*
X590551Y365748D02*
Y407717D01*
X558661D02*
X590551D01*
X558661Y365748D02*
Y407717D01*
Y365748D02*
X590551D01*
X245827Y303346D02*
X258110D01*
X245827Y263583D02*
Y303346D01*
Y263583D02*
X258110D01*
Y303346D01*
X432610Y247538D02*
X436547D01*
X434579Y245570D02*
Y249507D01*
X533465Y220472D02*
X537402D01*
X535433Y218504D02*
Y222441D01*
X414370Y364173D02*
X491142D01*
X414370D02*
Y391732D01*
X491142D01*
Y364173D02*
Y391732D01*
X539370Y257874D02*
Y261811D01*
X537402Y259843D02*
X541339D01*
X406811Y403839D02*
Y425492D01*
Y403839D02*
X501299D01*
Y425492D01*
X406811D02*
X501299D01*
X204331Y210630D02*
X279921D01*
X204331D02*
Y253937D01*
X279921D01*
Y210630D02*
Y253937D01*
X389764Y210630D02*
Y316929D01*
X283465Y210630D02*
X389764D01*
X283465D02*
Y316929D01*
X389764D01*
X387795Y322441D02*
Y398032D01*
X344488Y322441D02*
X387795D01*
X344488D02*
Y398032D01*
X387795D01*
X322835Y322835D02*
Y440945D01*
X204724D02*
X322835D01*
X204724Y322835D02*
Y440945D01*
Y322835D02*
X322835D01*
X203150Y306102D02*
X240157D01*
X203150Y256890D02*
Y306102D01*
Y256890D02*
X240157D01*
Y306102D01*
D18*
X336614Y312992D02*
G03*
X336614Y214567I0J-49213D01*
G01*
D02*
G03*
X336614Y312992I0J49213D01*
G01*
X208661Y381890D02*
G03*
X318898Y381890I55118J0D01*
G01*
D02*
G03*
X208661Y381890I-55118J0D01*
G01*
X418307Y368110D02*
X487205D01*
X418307D02*
Y387795D01*
X487205D01*
Y368110D02*
Y387795D01*
X410748Y407776D02*
Y421555D01*
Y407776D02*
X497362D01*
Y421555D01*
X410748D02*
X497362D01*
X206299Y212598D02*
X277953D01*
X206299D02*
Y251969D01*
X277953D01*
Y212598D02*
Y251969D01*
X385827Y324409D02*
Y396063D01*
X346457Y324409D02*
X385827D01*
X346457D02*
Y396063D01*
X385827D01*
X207087Y302165D02*
X236220D01*
X207087Y260827D02*
Y302165D01*
Y260827D02*
X236220D01*
Y302165D01*
D19*
X590059Y325672D02*
G03*
X590059Y325672I-37894J0D01*
G01*
X541766Y283743D02*
X555152D01*
X541766Y275869D02*
Y283743D01*
Y275869D02*
X555152D01*
Y283743D01*
X527182D02*
X540568D01*
X527182Y275869D02*
Y283743D01*
Y275869D02*
X540568D01*
Y283743D01*
X512598D02*
X525984D01*
X512598Y275869D02*
Y283743D01*
Y275869D02*
X525984D01*
Y283743D01*
X439714Y239166D02*
Y247513D01*
X455934D01*
Y239166D02*
Y247513D01*
X439714Y239166D02*
X455934D01*
X464781Y264852D02*
X472261D01*
X464781D02*
Y278041D01*
X472261D01*
Y264852D02*
Y278041D01*
X465273Y279643D02*
Y293029D01*
X457399D02*
X465273D01*
X457399Y279643D02*
Y293029D01*
Y279643D02*
X465273D01*
X464781Y245741D02*
Y263655D01*
Y245741D02*
X473836D01*
Y263655D01*
X464781D02*
X473836D01*
X438516Y240845D02*
Y254231D01*
X430642Y240845D02*
Y254231D01*
Y240845D02*
X438516D01*
X430642Y254231D02*
X438516D01*
X440731Y255429D02*
Y273343D01*
X431676D02*
X440731D01*
X431676Y255429D02*
Y273343D01*
Y255429D02*
X440731D01*
X441929Y278445D02*
X463583D01*
Y249114D02*
Y278445D01*
X441929Y249114D02*
X463583D01*
X441929D02*
Y278445D01*
X441302Y281643D02*
X448310D01*
X441302D02*
Y293139D01*
X448310D01*
Y281643D02*
Y293139D01*
X456201Y281643D02*
Y292981D01*
X449508D02*
X456201D01*
X449508Y281643D02*
Y292981D01*
Y281643D02*
X456201D01*
X549705Y197638D02*
Y243307D01*
X521161Y197638D02*
Y243307D01*
X549705D01*
X521161Y197638D02*
X549705D01*
X516535Y245571D02*
X562205D01*
X516535Y274114D02*
X562205D01*
Y245571D02*
Y274114D01*
X516535Y245571D02*
Y274114D01*
X591535Y364764D02*
Y408701D01*
X557677D02*
X591535D01*
X557677Y364764D02*
Y408701D01*
Y364764D02*
X591535D01*
X244626Y305925D02*
X259311D01*
X244626Y261004D02*
Y305925D01*
Y261004D02*
X259311D01*
Y305925D01*
D72*
X570066Y471641D02*
Y473241D01*
X571666D01*
Y471641D01*
X570066D01*
Y176365D02*
Y177965D01*
X571666D01*
Y176365D01*
X570066D01*
X215735D02*
Y177965D01*
X217335D01*
Y176365D01*
X215735D01*
Y471641D02*
Y473241D01*
X217335D01*
Y471641D01*
X215735D01*
X482283Y377153D02*
X481483Y378753D01*
X483083D01*
X482283Y377153D01*
X423228D02*
X422428Y378753D01*
X424028D01*
X423228Y377153D01*
X494094Y292507D02*
X494494Y292907D01*
X494894D01*
X494494Y293307D01*
X494894Y293707D01*
X494494D01*
X494094Y294107D01*
X493694Y293707D01*
X493294D01*
X493694Y293307D01*
X493294Y292907D01*
X493694D01*
X494094Y292507D01*
Y227546D02*
X494494Y227946D01*
X494894D01*
X494494Y228346D01*
X494894Y228746D01*
X494494D01*
X494094Y229146D01*
X493694Y228746D01*
X493294D01*
X493694Y228346D01*
X493294Y227946D01*
X493694D01*
X494094Y227546D01*
Y329909D02*
X494494Y330309D01*
X494894D01*
X494494Y330709D01*
X494894Y331109D01*
X494494D01*
X494094Y331509D01*
X493694Y331109D01*
X493294D01*
X493694Y330709D01*
X493294Y330309D01*
X493694D01*
X494094Y329909D01*
X411417D02*
X411817Y330309D01*
X412217D01*
X411817Y330709D01*
X412217Y331109D01*
X411817D01*
X411417Y331509D01*
X411017Y331109D01*
X410617D01*
X411017Y330709D01*
X410617Y330309D01*
X411017D01*
X411417Y329909D01*
Y227546D02*
X411817Y227946D01*
X412217D01*
X411817Y228346D01*
X412217Y228746D01*
X411817D01*
X411417Y229146D01*
X411017Y228746D01*
X410617D01*
X411017Y228346D01*
X410617Y227946D01*
X411017D01*
X411417Y227546D01*
Y278728D02*
X411817Y279128D01*
X412217D01*
X411817Y279528D01*
X412217Y279928D01*
X411817D01*
X411417Y280328D01*
X411017Y279928D01*
X410617D01*
X411017Y279528D01*
X410617Y279128D01*
X411017D01*
X411417Y278728D01*
X574003Y397153D02*
X574403Y397953D01*
X574003Y398753D01*
X574803Y398353D01*
X575603Y398753D01*
X575203Y397953D01*
X575603Y397153D01*
X574803Y397553D01*
X574003Y397153D01*
Y377153D02*
X574403Y377953D01*
X574003Y378753D01*
X574803Y378353D01*
X575603Y378753D01*
X575203Y377953D01*
X575603Y377153D01*
X574803Y377553D01*
X574003Y377153D01*
X423655Y413281D02*
Y412881D01*
X424455D01*
Y413281D01*
X424855D01*
Y414081D01*
X424455D01*
Y414481D01*
X423655D01*
Y414081D01*
X423255D01*
Y413281D01*
X423655D01*
X443655D02*
Y412881D01*
X444455D01*
Y413281D01*
X444855D01*
Y414081D01*
X444455D01*
Y414481D01*
X443655D01*
Y414081D01*
X443255D01*
Y413281D01*
X443655D01*
X463655D02*
Y412881D01*
X464455D01*
Y413281D01*
X464855D01*
Y414081D01*
X464455D01*
Y414481D01*
X463655D01*
Y414081D01*
X463255D01*
Y413281D01*
X463655D01*
X483655D02*
Y412881D01*
X484455D01*
Y413281D01*
X484855D01*
Y414081D01*
X484455D01*
Y414481D01*
X483655D01*
Y414081D01*
X483255D01*
Y413281D01*
X483655D01*
X270854Y231483D02*
X271254D01*
X271654Y231883D01*
X272054Y231483D01*
X272454D01*
Y231883D01*
X272054Y232283D01*
X272454Y232683D01*
Y233083D01*
X272054D01*
X271654Y232683D01*
X271254Y233083D01*
X270854D01*
Y232683D01*
X271254Y232283D01*
X270854Y231883D01*
Y231483D01*
X211798D02*
X212198D01*
X212598Y231883D01*
X212998Y231483D01*
X213398D01*
Y231883D01*
X212998Y232283D01*
X213398Y232683D01*
Y233083D01*
X212998D01*
X212598Y232683D01*
X212198Y233083D01*
X211798D01*
Y232683D01*
X212198Y232283D01*
X211798Y231883D01*
Y231483D01*
X298413Y283465D02*
X299213Y284265D01*
X300013Y283465D01*
X299213Y282665D01*
X298413Y283465D01*
X373216D02*
X374016Y284265D01*
X374816Y283465D01*
X374016Y282665D01*
X373216Y283465D01*
X298413Y244094D02*
X299213Y244894D01*
X300013Y244094D01*
X299213Y243294D01*
X298413Y244094D01*
X373216D02*
X374016Y244894D01*
X374816Y244094D01*
X374016Y243294D01*
X373216Y244094D01*
X365342Y388964D02*
X365742D01*
X366142Y389364D01*
X366542Y388964D01*
X366942D01*
Y389364D01*
X366542Y389764D01*
X366942Y390164D01*
Y390564D01*
X366542D01*
X366142Y390164D01*
X365742Y390564D01*
X365342D01*
Y390164D01*
X365742Y389764D01*
X365342Y389364D01*
Y388964D01*
Y329909D02*
X365742D01*
X366142Y330309D01*
X366542Y329909D01*
X366942D01*
Y330309D01*
X366542Y330709D01*
X366942Y331109D01*
Y331509D01*
X366542D01*
X366142Y331109D01*
X365742Y331509D01*
X365342D01*
Y331109D01*
X365742Y330709D01*
X365342Y330309D01*
Y329909D01*
X215342Y381090D02*
Y382690D01*
X216942D01*
Y381090D01*
X215342D01*
X215742Y381490D02*
Y382290D01*
X216542D01*
Y381490D01*
X215742D01*
X310617Y381090D02*
Y382690D01*
X312217D01*
Y381090D01*
X310617D01*
X311017Y381490D02*
Y382290D01*
X311817D01*
Y381490D01*
X311017D01*
X439961Y274791D02*
X439161Y276391D01*
X440761D01*
X439961Y274791D01*
Y275190D02*
X439561Y275991D01*
X440361D01*
X439961Y275190D01*
X523032Y285224D02*
X522232Y286824D01*
X523832D01*
X523032Y285224D01*
Y285624D02*
X522632Y286423D01*
X523432D01*
X523032Y285624D01*
X461614Y260027D02*
X460814Y261627D01*
X462414D01*
X461614Y260027D01*
Y260427D02*
X461214Y261227D01*
X462014D01*
X461614Y260427D01*
X449803Y235420D02*
X449003Y237020D01*
X450603D01*
X449803Y235420D01*
Y235821D02*
X449403Y236620D01*
X450203D01*
X449803Y235821D01*
X551400Y225400D02*
X550600Y227000D01*
X552200D01*
X551400Y225400D01*
Y225800D02*
X551000Y226600D01*
X551800D01*
X551400Y225800D01*
D73*
X538202Y325672D02*
G03*
X538202Y325672I-800J0D01*
G01*
X567729D02*
G03*
X567729Y325672I-800J0D01*
G01*
X221272Y267717D02*
G03*
X221272Y267717I-800J0D01*
G01*
Y281496D02*
G03*
X221272Y281496I-800J0D01*
G01*
Y295276D02*
G03*
X221272Y295276I-800J0D01*
G01*
D74*
X220872Y267717D02*
G03*
X220872Y267717I-400J0D01*
G01*
Y281496D02*
G03*
X220872Y281496I-400J0D01*
G01*
Y295276D02*
G03*
X220872Y295276I-400J0D01*
G01*
M02*
