G04 Layer_Physical_Order=2*
G04 Layer_Color=16711680*
%FSLAX25Y25*%
%MOIN*%
G70*
G01*
G75*
%ADD15C,0.01000*%
%ADD16C,0.01969*%
%ADD17C,0.00394*%
%ADD18C,0.00787*%
%ADD19C,0.00197*%
%ADD20C,0.19685*%
%ADD21C,0.05906*%
%ADD22R,0.05906X0.05906*%
%ADD23C,0.05500*%
%ADD24C,0.15748*%
%ADD25C,0.08563*%
%ADD26R,0.08563X0.08563*%
%ADD27C,0.09331*%
%ADD28R,0.09331X0.09331*%
%ADD29C,0.05437*%
%ADD30C,0.05512*%
%ADD31C,0.14173*%
%ADD32C,0.07677*%
%ADD33C,0.05000*%
%ADD34R,0.03937X0.05709*%
%ADD35R,0.02441X0.07165*%
%ADD36R,0.05512X0.03740*%
%ADD37R,0.05709X0.03937*%
%ADD38R,0.07087X0.04134*%
%ADD39R,0.05709X0.04528*%
%ADD40R,0.02756X0.06004*%
%ADD41R,0.05787X0.02441*%
%ADD42R,0.05472X0.03780*%
G36*
X592520Y189370D02*
X591732Y188583D01*
X589370Y190945D01*
X199606D01*
Y442913D01*
X205512Y448819D01*
X204485Y451557D01*
X204770Y451968D01*
X592520D01*
Y189370D01*
D02*
G37*
%LPC*%
G36*
X424555Y419329D02*
Y414181D01*
X429704D01*
X429575Y415160D01*
X429004Y416538D01*
X428096Y417722D01*
X426912Y418630D01*
X425534Y419201D01*
X424555Y419329D01*
D02*
G37*
G36*
X423555D02*
X422576Y419201D01*
X421198Y418630D01*
X420015Y417722D01*
X419106Y416538D01*
X418536Y415160D01*
X418407Y414181D01*
X423555D01*
Y419329D01*
D02*
G37*
G36*
X489114Y418740D02*
X478996D01*
Y408622D01*
X489114D01*
Y418740D01*
D02*
G37*
G36*
X464055Y418784D02*
X462735Y418610D01*
X461504Y418100D01*
X460447Y417289D01*
X459636Y416232D01*
X459126Y415002D01*
X459072Y414592D01*
X454881D01*
X454532Y414523D01*
X454237Y414325D01*
X430586Y390675D01*
X369133D01*
X368860Y391333D01*
X368361Y391983D01*
X367711Y392482D01*
X366954Y392796D01*
X366142Y392903D01*
X365329Y392796D01*
X364572Y392482D01*
X364269Y392250D01*
X225591D01*
X225242Y392180D01*
X224946Y391983D01*
X220749Y387786D01*
X220318Y388140D01*
X219018Y388834D01*
X217608Y389262D01*
X216142Y389406D01*
X214675Y389262D01*
X213265Y388834D01*
X211966Y388140D01*
X210827Y387205D01*
X209892Y386066D01*
X209197Y384766D01*
X208770Y383356D01*
X208625Y381890D01*
X208770Y380423D01*
X209197Y379013D01*
X209892Y377714D01*
X210827Y376575D01*
X211966Y375640D01*
X213265Y374945D01*
X214675Y374518D01*
X216142Y374373D01*
X217608Y374518D01*
X219018Y374945D01*
X220318Y375640D01*
X221457Y376575D01*
X222392Y377714D01*
X223086Y379013D01*
X223514Y380423D01*
X223658Y381890D01*
X223514Y383356D01*
X223086Y384766D01*
X222392Y386066D01*
X222038Y386497D01*
X225968Y390427D01*
X362711D01*
X363041Y390051D01*
X363003Y389764D01*
X363110Y388951D01*
X363423Y388194D01*
X363922Y387544D01*
X364572Y387045D01*
X365329Y386732D01*
X366142Y386625D01*
X366954Y386732D01*
X367711Y387045D01*
X368361Y387544D01*
X368860Y388194D01*
X369133Y388853D01*
X430964D01*
X431313Y388922D01*
X431608Y389120D01*
X455258Y412770D01*
X459072D01*
X459126Y412360D01*
X459636Y411130D01*
X460447Y410073D01*
X461504Y409262D01*
X462735Y408752D01*
X464055Y408578D01*
X465376Y408752D01*
X466607Y409262D01*
X467663Y410073D01*
X468474Y411130D01*
X468984Y412360D01*
X469158Y413681D01*
X468984Y415002D01*
X468474Y416232D01*
X467663Y417289D01*
X466607Y418100D01*
X465376Y418610D01*
X464055Y418784D01*
D02*
G37*
G36*
X444055D02*
X442734Y418610D01*
X441504Y418100D01*
X440447Y417289D01*
X439636Y416232D01*
X439126Y415002D01*
X438952Y413681D01*
X439126Y412360D01*
X439636Y411130D01*
X440447Y410073D01*
X441504Y409262D01*
X442734Y408752D01*
X444055Y408578D01*
X445376Y408752D01*
X446606Y409262D01*
X447663Y410073D01*
X448474Y411130D01*
X448984Y412360D01*
X449158Y413681D01*
X448984Y415002D01*
X448474Y416232D01*
X447663Y417289D01*
X446606Y418100D01*
X445376Y418610D01*
X444055Y418784D01*
D02*
G37*
G36*
X429704Y413181D02*
X424555D01*
Y408033D01*
X425534Y408161D01*
X426912Y408732D01*
X428096Y409640D01*
X429004Y410824D01*
X429575Y412202D01*
X429704Y413181D01*
D02*
G37*
G36*
X423555D02*
X418407D01*
X418536Y412202D01*
X419106Y410824D01*
X420015Y409640D01*
X421198Y408732D01*
X422576Y408161D01*
X423555Y408033D01*
Y413181D01*
D02*
G37*
G36*
X575303Y403214D02*
Y398453D01*
X580064D01*
X579949Y399331D01*
X579417Y400616D01*
X578570Y401720D01*
X577467Y402566D01*
X576182Y403098D01*
X575303Y403214D01*
D02*
G37*
G36*
X574303D02*
X573424Y403098D01*
X572140Y402566D01*
X571036Y401720D01*
X570190Y400616D01*
X569658Y399331D01*
X569596Y398864D01*
X443228D01*
X442880Y398795D01*
X442584Y398597D01*
X425174Y381187D01*
X425120Y381228D01*
X424207Y381606D01*
X423728Y381669D01*
Y378453D01*
X426945D01*
X426882Y378932D01*
X426504Y379844D01*
X426462Y379898D01*
X443606Y397042D01*
X569596D01*
X569658Y396574D01*
X570190Y395289D01*
X571036Y394186D01*
X572140Y393339D01*
X573424Y392807D01*
X574303Y392692D01*
Y397953D01*
Y403214D01*
D02*
G37*
G36*
X580064Y397453D02*
X575303D01*
Y392692D01*
X576182Y392807D01*
X577467Y393339D01*
X578570Y394186D01*
X579417Y395289D01*
X579949Y396574D01*
X580064Y397453D01*
D02*
G37*
G36*
X422728Y381669D02*
X422249Y381606D01*
X421337Y381228D01*
X420554Y380627D01*
X419953Y379844D01*
X419575Y378932D01*
X419512Y378453D01*
X422728D01*
Y381669D01*
D02*
G37*
G36*
X482283Y381124D02*
X481463Y381016D01*
X480698Y380699D01*
X480041Y380195D01*
X479537Y379538D01*
X479221Y378773D01*
X479113Y377953D01*
X479221Y377132D01*
X479537Y376367D01*
X480041Y375711D01*
X480698Y375207D01*
X481463Y374890D01*
X482283Y374782D01*
X483104Y374890D01*
X483869Y375207D01*
X484525Y375711D01*
X485029Y376367D01*
X485346Y377132D01*
X485454Y377953D01*
X485346Y378773D01*
X485029Y379538D01*
X484525Y380195D01*
X483869Y380699D01*
X483104Y381016D01*
X482283Y381124D01*
D02*
G37*
G36*
X311417Y389406D02*
X309951Y389262D01*
X308541Y388834D01*
X307242Y388140D01*
X306102Y387205D01*
X305168Y386066D01*
X304473Y384766D01*
X304045Y383356D01*
X303901Y381890D01*
X304045Y380423D01*
X304473Y379013D01*
X305168Y377714D01*
X306102Y376575D01*
X307242Y375640D01*
X308541Y374945D01*
X309951Y374518D01*
X311417Y374373D01*
X312884Y374518D01*
X314294Y374945D01*
X315593Y375640D01*
X316732Y376575D01*
X317667Y377714D01*
X318362Y379013D01*
X318790Y380423D01*
X318934Y381890D01*
X318790Y383356D01*
X318362Y384766D01*
X317667Y386066D01*
X316732Y387205D01*
X315593Y388140D01*
X314294Y388834D01*
X312884Y389262D01*
X311417Y389406D01*
D02*
G37*
G36*
X426945Y377453D02*
X423728D01*
Y374236D01*
X424207Y374299D01*
X425120Y374677D01*
X425903Y375278D01*
X426504Y376062D01*
X426882Y376974D01*
X426945Y377453D01*
D02*
G37*
G36*
X422728D02*
X419512D01*
X419575Y376974D01*
X419953Y376062D01*
X420554Y375278D01*
X421337Y374677D01*
X422249Y374299D01*
X422728Y374236D01*
Y377453D01*
D02*
G37*
G36*
X579478Y382628D02*
X570128D01*
Y373278D01*
X579478D01*
Y382628D01*
D02*
G37*
G36*
X366142Y333848D02*
X365329Y333741D01*
X364572Y333427D01*
X363922Y332928D01*
X363423Y332278D01*
X363110Y331521D01*
X363003Y330709D01*
X363110Y329896D01*
X363423Y329139D01*
X363922Y328489D01*
X364572Y327990D01*
X365329Y327677D01*
X366142Y327570D01*
X366954Y327677D01*
X367711Y327990D01*
X368361Y328489D01*
X368860Y329139D01*
X369174Y329896D01*
X369281Y330709D01*
X369174Y331521D01*
X368860Y332278D01*
X368361Y332928D01*
X367711Y333427D01*
X366954Y333741D01*
X366142Y333848D01*
D02*
G37*
G36*
X537902Y329593D02*
Y326172D01*
X541323D01*
X541253Y326704D01*
X540854Y327666D01*
X540221Y328491D01*
X539395Y329125D01*
X538434Y329523D01*
X537902Y329593D01*
D02*
G37*
G36*
X536902D02*
X536370Y329523D01*
X535408Y329125D01*
X534583Y328491D01*
X533949Y327666D01*
X533551Y326704D01*
X533481Y326172D01*
X536902D01*
Y329593D01*
D02*
G37*
G36*
X494094Y339016D02*
X492474Y338857D01*
X490915Y338384D01*
X489479Y337616D01*
X488220Y336583D01*
X487187Y335324D01*
X486419Y333888D01*
X485946Y332329D01*
X485925Y332114D01*
X456309D01*
X455771Y332007D01*
X455315Y331702D01*
X422206Y298593D01*
X421902Y298138D01*
X421795Y297600D01*
Y256000D01*
X421902Y255462D01*
X422206Y255007D01*
X427223Y249990D01*
X427679Y249685D01*
X428217Y249578D01*
X431331D01*
Y248711D01*
X430871D01*
X430522Y248642D01*
X430227Y248444D01*
X417015Y235232D01*
X416371Y235761D01*
X414830Y236585D01*
X413157Y237092D01*
X411917Y237214D01*
Y228346D01*
Y219479D01*
X413157Y219601D01*
X414830Y220108D01*
X416371Y220932D01*
X417723Y222041D01*
X418832Y223392D01*
X419656Y224934D01*
X420163Y226607D01*
X420245Y227435D01*
X453869D01*
X454218Y227505D01*
X454514Y227702D01*
X454767Y227956D01*
X454965Y228251D01*
X455034Y228600D01*
Y238757D01*
X456344D01*
Y242840D01*
X454123D01*
X451902D01*
Y239222D01*
X451902Y238887D01*
X451473Y238586D01*
X451263Y238748D01*
X450714Y238975D01*
Y249707D01*
X452028D01*
Y256498D01*
X448484D01*
Y249707D01*
X448892D01*
Y238975D01*
X448344Y238748D01*
X447739Y238284D01*
X447275Y237680D01*
X446984Y236976D01*
X446884Y236221D01*
X446984Y235465D01*
X447275Y234761D01*
X447739Y234157D01*
X448344Y233693D01*
X449048Y233401D01*
X449803Y233302D01*
X450559Y233401D01*
X451263Y233693D01*
X451867Y234157D01*
X452331Y234761D01*
X452622Y235465D01*
X452654Y235703D01*
X453179Y235865D01*
X453212Y235828D01*
Y229258D01*
X420245D01*
X420163Y230086D01*
X419656Y231759D01*
X418832Y233300D01*
X418303Y233944D01*
X430831Y246471D01*
X431331Y246264D01*
Y241436D01*
X437827D01*
Y243182D01*
X439910D01*
Y239363D01*
X443139D01*
Y246625D01*
X445900Y249387D01*
X446098Y249683D01*
X446103Y249707D01*
X447028D01*
Y256498D01*
X443484D01*
Y249707D01*
X443484Y249707D01*
X443484D01*
X443247Y249311D01*
X441252Y247316D01*
X439910D01*
Y245005D01*
X437827D01*
X437827Y246751D01*
X438270Y246889D01*
X438300D01*
X438649Y246958D01*
X438944Y247156D01*
X442573Y250785D01*
X442771Y251080D01*
X442840Y251429D01*
Y260827D01*
X442771Y261175D01*
X442573Y261471D01*
X439621Y264424D01*
X439325Y264621D01*
X438976Y264691D01*
X429511D01*
X426011Y268191D01*
Y287623D01*
X428805Y290417D01*
X440912D01*
Y289107D01*
X444306D01*
Y291328D01*
Y293548D01*
X440912D01*
Y292239D01*
X428428D01*
X428079Y292170D01*
X427783Y291972D01*
X425067Y289255D01*
X424605Y289447D01*
Y297018D01*
X456890Y329304D01*
X485925D01*
X485946Y329088D01*
X486419Y327529D01*
X487187Y326093D01*
X488220Y324834D01*
X489479Y323801D01*
X490915Y323033D01*
X492474Y322561D01*
X494094Y322401D01*
X495715Y322561D01*
X497274Y323033D01*
X498710Y323801D01*
X499969Y324834D01*
X501002Y326093D01*
X501770Y327529D01*
X502243Y329088D01*
X502402Y330709D01*
X502243Y332329D01*
X501770Y333888D01*
X501002Y335324D01*
X499969Y336583D01*
X498710Y337616D01*
X497274Y338384D01*
X495715Y338857D01*
X494094Y339016D01*
D02*
G37*
G36*
X411417D02*
X409797Y338857D01*
X408238Y338384D01*
X406802Y337616D01*
X405543Y336583D01*
X404510Y335324D01*
X403742Y333888D01*
X403269Y332329D01*
X403110Y330709D01*
X403269Y329088D01*
X403742Y327529D01*
X404510Y326093D01*
X405543Y324834D01*
X406802Y323801D01*
X408238Y323033D01*
X409797Y322561D01*
X411417Y322401D01*
X413038Y322561D01*
X414597Y323033D01*
X416033Y323801D01*
X417292Y324834D01*
X418325Y326093D01*
X419093Y327529D01*
X419565Y329088D01*
X419725Y330709D01*
X419565Y332329D01*
X419093Y333888D01*
X418325Y335324D01*
X417292Y336583D01*
X416033Y337616D01*
X414597Y338384D01*
X413038Y338857D01*
X411417Y339016D01*
D02*
G37*
G36*
X541323Y325172D02*
X537902D01*
Y321751D01*
X538434Y321821D01*
X539395Y322219D01*
X540221Y322853D01*
X540854Y323679D01*
X541253Y324640D01*
X541323Y325172D01*
D02*
G37*
G36*
X536902D02*
X533481D01*
X533551Y324640D01*
X533949Y323679D01*
X534023Y323582D01*
X514907Y304466D01*
X514709Y304170D01*
X514640Y303822D01*
Y283660D01*
X512583D01*
Y280306D01*
X515551D01*
X518520D01*
Y283660D01*
X516462D01*
Y303444D01*
X535312Y322294D01*
X535408Y322219D01*
X536370Y321821D01*
X536902Y321751D01*
Y325172D01*
D02*
G37*
G36*
X220472Y299544D02*
X219368Y299399D01*
X218338Y298973D01*
X217454Y298294D01*
X216775Y297410D01*
X216349Y296380D01*
X216204Y295276D01*
X216349Y294171D01*
X216775Y293141D01*
X217454Y292257D01*
X218338Y291579D01*
X219368Y291152D01*
X220472Y291007D01*
X221577Y291152D01*
X222607Y291579D01*
X223491Y292257D01*
X224169Y293141D01*
X224596Y294171D01*
X224741Y295276D01*
X224596Y296380D01*
X224169Y297410D01*
X223491Y298294D01*
X222607Y298973D01*
X221577Y299399D01*
X220472Y299544D01*
D02*
G37*
G36*
X465190Y293044D02*
X461836D01*
Y290576D01*
X465190D01*
Y293044D01*
D02*
G37*
G36*
X448700Y293548D02*
Y293548D01*
X448683Y293548D01*
X445306D01*
Y291328D01*
Y289107D01*
X448700D01*
X449118Y288911D01*
Y287611D01*
X452354D01*
Y290501D01*
Y293391D01*
X449118D01*
X449118Y293391D01*
X448700Y293548D01*
D02*
G37*
G36*
X456591Y293391D02*
X453354D01*
Y290501D01*
Y287611D01*
X456591D01*
Y288824D01*
X456648Y288907D01*
X456981Y289121D01*
X457481Y288944D01*
Y287107D01*
X460836D01*
Y290076D01*
Y293044D01*
X457481D01*
Y291722D01*
X457397Y291625D01*
X457091Y291442D01*
X456591Y291625D01*
Y293391D01*
D02*
G37*
G36*
X494094Y301615D02*
X492474Y301455D01*
X490915Y300982D01*
X489479Y300215D01*
X488220Y299181D01*
X487187Y297922D01*
X486419Y296486D01*
X485946Y294928D01*
X485787Y293307D01*
X485946Y291686D01*
X486419Y290128D01*
X487187Y288691D01*
X488220Y287433D01*
X489479Y286399D01*
X490915Y285632D01*
X492474Y285159D01*
X494094Y284999D01*
X495715Y285159D01*
X497274Y285632D01*
X498710Y286399D01*
X499969Y287433D01*
X501002Y288691D01*
X501770Y290128D01*
X502243Y291686D01*
X502402Y293307D01*
X502243Y294928D01*
X501770Y296486D01*
X501002Y297922D01*
X499969Y299181D01*
X498710Y300215D01*
X497274Y300982D01*
X495715Y301455D01*
X494094Y301615D01*
D02*
G37*
G36*
X547081Y283054D02*
X542356D01*
Y280717D01*
X539977D01*
Y283054D01*
X535253D01*
Y276558D01*
X539977D01*
Y278895D01*
X542356D01*
Y276558D01*
X547081D01*
Y283054D01*
D02*
G37*
G36*
X374016Y286641D02*
X373194Y286533D01*
X372427Y286216D01*
X371769Y285711D01*
X371265Y285053D01*
X370947Y284287D01*
X370839Y283465D01*
X370947Y282642D01*
X371265Y281876D01*
X371769Y281218D01*
X372427Y280713D01*
X373194Y280396D01*
X374016Y280288D01*
X374838Y280396D01*
X375604Y280713D01*
X376262Y281218D01*
X376767Y281876D01*
X377084Y282642D01*
X377193Y283465D01*
X377084Y284287D01*
X376767Y285053D01*
X376262Y285711D01*
X375604Y286216D01*
X374838Y286533D01*
X374016Y286641D01*
D02*
G37*
G36*
X299213D02*
X298390Y286533D01*
X297624Y286216D01*
X296966Y285711D01*
X296461Y285053D01*
X296144Y284287D01*
X296036Y283465D01*
X296144Y282642D01*
X296461Y281876D01*
X296966Y281218D01*
X297624Y280713D01*
X298390Y280396D01*
X299213Y280288D01*
X300035Y280396D01*
X300801Y280713D01*
X301459Y281218D01*
X301964Y281876D01*
X302281Y282642D01*
X302389Y283465D01*
X302281Y284287D01*
X301964Y285053D01*
X301459Y285711D01*
X300801Y286216D01*
X300035Y286533D01*
X299213Y286641D01*
D02*
G37*
G36*
X220472Y285765D02*
X219368Y285619D01*
X218338Y285193D01*
X217454Y284514D01*
X216775Y283630D01*
X216349Y282601D01*
X216204Y281496D01*
X216349Y280391D01*
X216775Y279362D01*
X217454Y278478D01*
X218338Y277799D01*
X219368Y277373D01*
X220472Y277227D01*
X221577Y277373D01*
X222607Y277799D01*
X223491Y278478D01*
X224169Y279362D01*
X224596Y280391D01*
X224741Y281496D01*
X224596Y282601D01*
X224169Y283630D01*
X223491Y284514D01*
X222607Y285193D01*
X221577Y285619D01*
X220472Y285765D01*
D02*
G37*
G36*
X570276Y329019D02*
X563583D01*
Y324313D01*
X551205Y311935D01*
X550901Y311479D01*
X550794Y310942D01*
Y283054D01*
X549837D01*
Y276558D01*
X554561D01*
Y283054D01*
X553604D01*
Y310360D01*
X565570Y322326D01*
X570276D01*
Y329019D01*
D02*
G37*
G36*
X523032Y288942D02*
X522276Y288843D01*
X521572Y288551D01*
X520968Y288087D01*
X520504Y287483D01*
X520212Y286779D01*
X520113Y286023D01*
X520212Y285268D01*
X520504Y284564D01*
X520968Y283960D01*
X521496Y283554D01*
X521462Y283265D01*
X521361Y283054D01*
X520669D01*
Y276558D01*
X525394D01*
Y278895D01*
X527773D01*
Y276558D01*
X532497D01*
Y283054D01*
X527773D01*
Y280717D01*
X525394D01*
Y283054D01*
X524702D01*
X524601Y283265D01*
X524567Y283554D01*
X525095Y283960D01*
X525559Y284564D01*
X525851Y285268D01*
X525950Y286023D01*
X525851Y286779D01*
X525559Y287483D01*
X525095Y288087D01*
X524491Y288551D01*
X523787Y288843D01*
X523032Y288942D01*
D02*
G37*
G36*
X518520Y279306D02*
X516051D01*
Y275952D01*
X518520D01*
Y279306D01*
D02*
G37*
G36*
X465190Y289576D02*
X461836D01*
Y287107D01*
X464704D01*
X466789Y285023D01*
Y278057D01*
X464765D01*
Y275687D01*
X468521D01*
Y275187D01*
X469021D01*
Y272317D01*
X472276D01*
Y274276D01*
X510932D01*
X511281Y274345D01*
X511577Y274543D01*
X512986Y275952D01*
X515051D01*
Y279306D01*
X512583D01*
Y278126D01*
X510555Y276098D01*
X472276D01*
Y278057D01*
X468611D01*
Y285400D01*
X468542Y285749D01*
X468344Y286044D01*
X465190Y289199D01*
Y289576D01*
D02*
G37*
G36*
X468021Y274687D02*
X464765D01*
Y272317D01*
X468021D01*
Y274687D01*
D02*
G37*
G36*
X411417Y287835D02*
X409797Y287676D01*
X408238Y287203D01*
X406802Y286435D01*
X405543Y285402D01*
X404510Y284143D01*
X403742Y282707D01*
X403269Y281148D01*
X403110Y279528D01*
X403269Y277907D01*
X403742Y276348D01*
X404510Y274912D01*
X405543Y273653D01*
X406802Y272620D01*
X408238Y271852D01*
X409797Y271379D01*
X411417Y271220D01*
X413038Y271379D01*
X414597Y271852D01*
X416033Y272620D01*
X417292Y273653D01*
X418325Y274912D01*
X419093Y276348D01*
X419565Y277907D01*
X419725Y279528D01*
X419565Y281148D01*
X419093Y282707D01*
X418325Y284143D01*
X417292Y285402D01*
X416033Y286435D01*
X414597Y287203D01*
X413038Y287676D01*
X411417Y287835D01*
D02*
G37*
G36*
X455984Y286406D02*
X449724D01*
Y281839D01*
X453419D01*
Y275382D01*
X453484Y275056D01*
Y272096D01*
X452591Y271203D01*
X452028D01*
Y277853D01*
X450798D01*
X447273Y281378D01*
X447465Y281840D01*
X448093D01*
Y285068D01*
X441519D01*
Y281840D01*
X444234D01*
X448484Y277589D01*
Y271203D01*
X447028D01*
Y277853D01*
X443484D01*
Y275598D01*
X443350Y275564D01*
X442834Y275935D01*
X442780Y276346D01*
X442488Y277050D01*
X442024Y277654D01*
X441420Y278118D01*
X440716Y278410D01*
X439961Y278509D01*
X439205Y278410D01*
X438501Y278118D01*
X437897Y277654D01*
X437433Y277050D01*
X437141Y276346D01*
X437042Y275590D01*
X437141Y274835D01*
X437433Y274131D01*
X437897Y273527D01*
X438255Y273252D01*
X438085Y272752D01*
X432267D01*
Y267831D01*
X440141D01*
Y269380D01*
X452969D01*
X453317Y269449D01*
X453613Y269647D01*
X455027Y271061D01*
X457028D01*
Y277853D01*
X455242D01*
Y281839D01*
X455984D01*
Y282553D01*
X458088D01*
Y280233D01*
X464584D01*
Y284958D01*
X458088D01*
Y284376D01*
X455984D01*
Y286406D01*
D02*
G37*
G36*
X220472Y271985D02*
X219368Y271840D01*
X218338Y271413D01*
X217454Y270735D01*
X216775Y269851D01*
X216349Y268822D01*
X216204Y267717D01*
X216349Y266612D01*
X216775Y265582D01*
X217454Y264698D01*
X218338Y264020D01*
X219368Y263593D01*
X220472Y263448D01*
X221577Y263593D01*
X222607Y264020D01*
X223491Y264698D01*
X224169Y265582D01*
X224596Y266612D01*
X224741Y267717D01*
X224596Y268822D01*
X224169Y269851D01*
X223491Y270735D01*
X222607Y271413D01*
X221577Y271840D01*
X220472Y271985D01*
D02*
G37*
G36*
X461614Y263745D02*
X460859Y263646D01*
X460155Y263354D01*
X459550Y262891D01*
X459087Y262286D01*
X458795Y261582D01*
X458696Y260827D01*
X458795Y260071D01*
X459087Y259367D01*
X459550Y258763D01*
X460155Y258299D01*
X460859Y258008D01*
X461614Y257908D01*
X462370Y258008D01*
X463073Y258299D01*
X463678Y258763D01*
X464142Y259367D01*
X464276Y259692D01*
X465371D01*
Y258143D01*
X473245D01*
Y263064D01*
X465371D01*
Y261515D01*
X464442D01*
X464433Y261582D01*
X464142Y262286D01*
X463678Y262891D01*
X463073Y263354D01*
X462370Y263646D01*
X461614Y263745D01*
D02*
G37*
G36*
X457634Y257104D02*
X455756D01*
Y253602D01*
X457634D01*
Y257104D01*
D02*
G37*
G36*
X454756D02*
X452878D01*
Y253602D01*
X454756D01*
Y257104D01*
D02*
G37*
G36*
X462028Y256498D02*
X458484D01*
Y249707D01*
X462028D01*
X462028Y249707D01*
Y249707D01*
X462491Y249579D01*
X463922Y248148D01*
X464217Y247951D01*
X464566Y247881D01*
X465371D01*
Y246332D01*
X473245D01*
Y251253D01*
X465371D01*
Y249879D01*
X464871Y249776D01*
X462028Y252619D01*
Y256498D01*
D02*
G37*
G36*
X457634Y252602D02*
X455256D01*
X452878D01*
Y249100D01*
X453212D01*
Y247922D01*
X451902D01*
Y243840D01*
X454123D01*
X456344D01*
Y247922D01*
X455034D01*
Y249100D01*
X457634D01*
Y252602D01*
D02*
G37*
G36*
X374016Y247271D02*
X373194Y247163D01*
X372427Y246846D01*
X371769Y246341D01*
X371265Y245683D01*
X370947Y244917D01*
X370839Y244094D01*
X370947Y243272D01*
X371265Y242506D01*
X371769Y241848D01*
X372427Y241343D01*
X373194Y241026D01*
X374016Y240918D01*
X374838Y241026D01*
X375604Y241343D01*
X376262Y241848D01*
X376767Y242506D01*
X377084Y243272D01*
X377193Y244094D01*
X377084Y244917D01*
X376767Y245683D01*
X376262Y246341D01*
X375604Y246846D01*
X374838Y247163D01*
X374016Y247271D01*
D02*
G37*
G36*
X299213D02*
X298390Y247163D01*
X297624Y246846D01*
X296966Y246341D01*
X296461Y245683D01*
X296144Y244917D01*
X296036Y244094D01*
X296144Y243272D01*
X296425Y242595D01*
X282941Y229111D01*
X273423D01*
X273297Y229397D01*
X273284Y229611D01*
X273873Y230064D01*
X274372Y230714D01*
X274686Y231471D01*
X274793Y232283D01*
X274686Y233096D01*
X274372Y233853D01*
X273873Y234503D01*
X273223Y235002D01*
X272466Y235315D01*
X271654Y235422D01*
X270841Y235315D01*
X270084Y235002D01*
X269434Y234503D01*
X268935Y233853D01*
X268621Y233096D01*
X268514Y232283D01*
X268621Y231471D01*
X268935Y230714D01*
X269434Y230064D01*
X270024Y229611D01*
X270010Y229397D01*
X269884Y229111D01*
X217059D01*
X215358Y230813D01*
X215631Y231471D01*
X215738Y232283D01*
X215631Y233096D01*
X215317Y233853D01*
X214818Y234503D01*
X214168Y235002D01*
X213411Y235315D01*
X212598Y235422D01*
X211786Y235315D01*
X211029Y235002D01*
X210379Y234503D01*
X209880Y233853D01*
X209566Y233096D01*
X209459Y232283D01*
X209566Y231471D01*
X209880Y230714D01*
X210379Y230064D01*
X211029Y229565D01*
X211786Y229251D01*
X212598Y229144D01*
X213411Y229251D01*
X214069Y229524D01*
X216038Y227556D01*
X216333Y227358D01*
X216682Y227289D01*
X283318D01*
X283667Y227358D01*
X283962Y227556D01*
X297713Y241306D01*
X298390Y241026D01*
X299213Y240918D01*
X300035Y241026D01*
X300801Y241343D01*
X301459Y241848D01*
X301964Y242506D01*
X302281Y243272D01*
X302389Y244094D01*
X302281Y244917D01*
X301964Y245683D01*
X301459Y246341D01*
X300801Y246846D01*
X300035Y247163D01*
X299213Y247271D01*
D02*
G37*
G36*
X410917Y237214D02*
X409678Y237092D01*
X408005Y236585D01*
X406463Y235761D01*
X405112Y234652D01*
X404003Y233300D01*
X403179Y231759D01*
X402672Y230086D01*
X402550Y228846D01*
X410917D01*
Y237214D01*
D02*
G37*
G36*
X462028Y277853D02*
X458484D01*
Y271061D01*
X461509D01*
X465371Y267199D01*
Y265443D01*
X471670D01*
Y266795D01*
X509516D01*
X548808Y227503D01*
X548581Y226955D01*
X548481Y226200D01*
X548581Y225445D01*
X548872Y224741D01*
X549336Y224136D01*
X549941Y223672D01*
X550645Y223381D01*
X551400Y223281D01*
X552155Y223381D01*
X552859Y223672D01*
X553464Y224136D01*
X553928Y224741D01*
X554219Y225445D01*
X554319Y226200D01*
X554219Y226955D01*
X553928Y227659D01*
X553464Y228264D01*
X552859Y228728D01*
X552155Y229019D01*
X551400Y229119D01*
X550645Y229019D01*
X550097Y228792D01*
X510538Y268351D01*
X510242Y268548D01*
X509893Y268618D01*
X471670D01*
Y269970D01*
X465371D01*
X465371Y269970D01*
Y269970D01*
X464961Y270186D01*
X462028Y273119D01*
Y277853D01*
D02*
G37*
G36*
X494094Y236654D02*
X492474Y236494D01*
X490915Y236022D01*
X489479Y235254D01*
X488220Y234221D01*
X487187Y232962D01*
X486419Y231526D01*
X485946Y229967D01*
X485787Y228346D01*
X485946Y226726D01*
X486419Y225167D01*
X487187Y223731D01*
X488220Y222472D01*
X489479Y221439D01*
X490915Y220671D01*
X492474Y220198D01*
X494094Y220039D01*
X495715Y220198D01*
X497274Y220671D01*
X498710Y221439D01*
X499969Y222472D01*
X501002Y223731D01*
X501770Y225167D01*
X502243Y226726D01*
X502402Y228346D01*
X502243Y229967D01*
X501770Y231526D01*
X501002Y232962D01*
X499969Y234221D01*
X498710Y235254D01*
X497274Y236022D01*
X495715Y236494D01*
X494094Y236654D01*
D02*
G37*
G36*
X410917Y227846D02*
X402550D01*
X402672Y226607D01*
X403179Y224934D01*
X404003Y223392D01*
X405112Y222041D01*
X406463Y220932D01*
X408005Y220108D01*
X409678Y219601D01*
X410917Y219479D01*
Y227846D01*
D02*
G37*
%LPD*%
G36*
X428489Y263135D02*
X428785Y262938D01*
X429134Y262868D01*
X438599D01*
X440026Y261441D01*
X439819Y260941D01*
X432267D01*
Y256020D01*
X433174D01*
Y253641D01*
X431331D01*
Y252388D01*
X428799D01*
X424605Y256582D01*
Y266367D01*
X425067Y266558D01*
X428489Y263135D01*
D02*
G37*
G36*
X441018Y260449D02*
Y251807D01*
X438327Y249115D01*
X437827Y249323D01*
Y253641D01*
X435984D01*
Y256020D01*
X440141D01*
Y260619D01*
X440641Y260826D01*
X441018Y260449D01*
D02*
G37*
D15*
X364567Y391339D02*
X366142Y389764D01*
X225591Y391339D02*
X364567D01*
X216142Y381890D02*
X225591Y391339D01*
X455256Y272579D02*
Y274457D01*
X452969Y270291D02*
X455256Y272579D01*
X436204Y270291D02*
X452969D01*
X466152Y267707D02*
X468521D01*
X460256Y273602D02*
X466152Y267707D01*
X460256Y273602D02*
Y274457D01*
X452854Y284123D02*
X454331Y282647D01*
Y275382D02*
Y282647D01*
Y275382D02*
X455256Y274457D01*
X460515Y282595D02*
X461336D01*
X459646Y283465D02*
X460515Y282595D01*
X453513Y283465D02*
X459646D01*
X452854Y284123D02*
X453513Y283465D01*
X450256Y274457D02*
Y277106D01*
X444806Y282556D02*
X450256Y277106D01*
X444806Y282556D02*
Y283454D01*
X440110Y274457D02*
X445256D01*
X523032Y279806D02*
Y286023D01*
Y279806D02*
X530135D01*
X441929Y251429D02*
Y260827D01*
X438976Y263779D02*
X441929Y260827D01*
X429134Y263779D02*
X438976D01*
X438300Y247800D02*
X441929Y251429D01*
X425100Y267813D02*
X429134Y263779D01*
X425100Y267813D02*
Y288000D01*
X440771Y244094D02*
X441525Y243340D01*
X434579Y244094D02*
X440771D01*
X455256Y251516D02*
Y253102D01*
X454123Y250383D02*
X455256Y251516D01*
X454123Y243340D02*
Y250383D01*
X449803Y236221D02*
Y250681D01*
X468521Y267707D02*
X509893D01*
X551400Y226200D01*
X443228Y397953D02*
X574803D01*
X467700Y275187D02*
Y285400D01*
X468521Y275187D02*
X510932D01*
X515551Y279806D01*
X423228Y377953D02*
X443228Y397953D01*
X454881Y413681D02*
X464055D01*
X430964Y389764D02*
X454881Y413681D01*
X366142Y389764D02*
X430964D01*
X212598Y232283D02*
X216682Y228200D01*
X283318D01*
X299213Y244094D01*
X441525Y243340D02*
Y246300D01*
X445256Y250031D01*
Y253102D01*
X537615Y279806D02*
X544719D01*
X462200Y260603D02*
X469308D01*
X460256Y253102D02*
X464566Y248792D01*
X469308D01*
X411417Y228346D02*
X453869D01*
X454123Y228600D01*
Y243340D01*
X411417Y228346D02*
X430871Y247800D01*
X438300D01*
X425100Y288000D02*
X428428Y291328D01*
X444806D01*
X448400D01*
X449227Y290501D01*
X452854D01*
X456800D01*
X457225Y290076D01*
X461336D01*
X463024D01*
X467700Y285400D01*
Y275187D02*
X468521D01*
X515551Y279806D02*
Y303822D01*
X537402Y325672D01*
D16*
X434579Y258480D02*
X436204D01*
X434579Y250983D02*
Y258480D01*
X456309Y330709D02*
X494094D01*
X423200Y297600D02*
X456309Y330709D01*
X423200Y256000D02*
Y297600D01*
Y256000D02*
X428217Y250983D01*
X434579D01*
X552199Y310942D02*
X566929Y325672D01*
X552199Y279806D02*
Y310942D01*
D17*
X588091Y325672D02*
G03*
X588091Y325672I-35925J0D01*
G01*
X544522Y282267D02*
X552396D01*
X544522Y277345D02*
Y282267D01*
Y277345D02*
X552396D01*
Y282267D01*
X529938D02*
X537812D01*
X529938Y277345D02*
Y282267D01*
Y277345D02*
X537812D01*
Y282267D01*
X515354D02*
X523228D01*
X515354Y277345D02*
Y282267D01*
Y277345D02*
X523228D01*
Y282267D01*
X441525Y240190D02*
Y246489D01*
X454123D01*
Y240190D02*
Y246489D01*
X441525Y240190D02*
X454123D01*
X466060Y267510D02*
X470981D01*
X466060D02*
Y275384D01*
X470981D01*
Y267510D02*
Y275384D01*
X463796Y282399D02*
Y290273D01*
X458875D02*
X463796D01*
X458875Y282399D02*
Y290273D01*
Y282399D02*
X463796D01*
X466158Y248497D02*
Y260899D01*
Y248497D02*
X472458D01*
Y260899D01*
X466158D02*
X472458D01*
X437433Y243208D02*
Y251869D01*
X431724Y243208D02*
Y251869D01*
Y243208D02*
X437433D01*
X431724Y251869D02*
X437433D01*
X439353Y258185D02*
Y270587D01*
X433054D02*
X439353D01*
X433054Y258185D02*
Y270587D01*
Y258185D02*
X439353D01*
X443110Y266457D02*
X448110Y271457D01*
X443110D02*
X462402D01*
Y256102D02*
Y271457D01*
X443110Y256102D02*
X462402D01*
X443110D02*
Y271457D01*
X442345Y283454D02*
X447267D01*
X442345D02*
Y291328D01*
X447267D01*
Y283454D02*
Y291328D01*
X455315Y283375D02*
Y291249D01*
X450394D02*
X455315D01*
X450394Y283375D02*
Y291249D01*
Y283375D02*
X455315D01*
X548720Y212008D02*
Y236496D01*
X522146Y212008D02*
Y236496D01*
X548720D01*
X522146Y212008D02*
X548720D01*
X529331Y246555D02*
X553819D01*
X529331Y273130D02*
X553819D01*
Y246555D02*
Y273130D01*
X529331Y246555D02*
Y273130D01*
X590551Y365748D02*
Y407717D01*
X558661D02*
X590551D01*
X558661Y365748D02*
Y407717D01*
Y365748D02*
X590551D01*
X245827Y303346D02*
X258110D01*
X245827Y263583D02*
Y303346D01*
Y263583D02*
X258110D01*
Y303346D01*
X432610Y247538D02*
X436547D01*
X434579Y245570D02*
Y249507D01*
X533465Y220472D02*
X537402D01*
X535433Y218504D02*
Y222441D01*
X414370Y364173D02*
X491142D01*
X414370D02*
Y391732D01*
X491142D01*
Y364173D02*
Y391732D01*
X539370Y257874D02*
Y261811D01*
X537402Y259843D02*
X541339D01*
X406811Y403839D02*
Y425492D01*
Y403839D02*
X501299D01*
Y425492D01*
X406811D02*
X501299D01*
X204331Y210630D02*
X279921D01*
X204331D02*
Y253937D01*
X279921D01*
Y210630D02*
Y253937D01*
X389764Y210630D02*
Y316929D01*
X283465Y210630D02*
X389764D01*
X283465D02*
Y316929D01*
X389764D01*
X387795Y322441D02*
Y398032D01*
X344488Y322441D02*
X387795D01*
X344488D02*
Y398032D01*
X387795D01*
X322835Y322835D02*
Y440945D01*
X204724D02*
X322835D01*
X204724Y322835D02*
Y440945D01*
Y322835D02*
X322835D01*
X203150Y306102D02*
X240157D01*
X203150Y256890D02*
Y306102D01*
Y256890D02*
X240157D01*
Y306102D01*
D18*
X336614Y312992D02*
G03*
X336614Y214567I0J-49213D01*
G01*
D02*
G03*
X336614Y312992I0J49213D01*
G01*
X208661Y381890D02*
G03*
X318898Y381890I55118J0D01*
G01*
D02*
G03*
X208661Y381890I-55118J0D01*
G01*
X418307Y368110D02*
X487205D01*
X418307D02*
Y387795D01*
X487205D01*
Y368110D02*
Y387795D01*
X410748Y407776D02*
Y421555D01*
Y407776D02*
X497362D01*
Y421555D01*
X410748D02*
X497362D01*
X206299Y212598D02*
X277953D01*
X206299D02*
Y251969D01*
X277953D01*
Y212598D02*
Y251969D01*
X385827Y324409D02*
Y396063D01*
X346457Y324409D02*
X385827D01*
X346457D02*
Y396063D01*
X385827D01*
X207087Y302165D02*
X236220D01*
X207087Y260827D02*
Y302165D01*
Y260827D02*
X236220D01*
Y302165D01*
D19*
X590059Y325672D02*
G03*
X590059Y325672I-37894J0D01*
G01*
X541766Y283743D02*
X555152D01*
X541766Y275869D02*
Y283743D01*
Y275869D02*
X555152D01*
Y283743D01*
X527182D02*
X540568D01*
X527182Y275869D02*
Y283743D01*
Y275869D02*
X540568D01*
Y283743D01*
X512598D02*
X525984D01*
X512598Y275869D02*
Y283743D01*
Y275869D02*
X525984D01*
Y283743D01*
X439714Y239166D02*
Y247513D01*
X455934D01*
Y239166D02*
Y247513D01*
X439714Y239166D02*
X455934D01*
X464781Y264852D02*
X472261D01*
X464781D02*
Y278041D01*
X472261D01*
Y264852D02*
Y278041D01*
X465273Y279643D02*
Y293029D01*
X457399D02*
X465273D01*
X457399Y279643D02*
Y293029D01*
Y279643D02*
X465273D01*
X464781Y245741D02*
Y263655D01*
Y245741D02*
X473836D01*
Y263655D01*
X464781D02*
X473836D01*
X438516Y240845D02*
Y254231D01*
X430642Y240845D02*
Y254231D01*
Y240845D02*
X438516D01*
X430642Y254231D02*
X438516D01*
X440731Y255429D02*
Y273343D01*
X431676D02*
X440731D01*
X431676Y255429D02*
Y273343D01*
Y255429D02*
X440731D01*
X441929Y278445D02*
X463583D01*
Y249114D02*
Y278445D01*
X441929Y249114D02*
X463583D01*
X441929D02*
Y278445D01*
X441302Y281643D02*
X448310D01*
X441302D02*
Y293139D01*
X448310D01*
Y281643D02*
Y293139D01*
X456201Y281643D02*
Y292981D01*
X449508D02*
X456201D01*
X449508Y281643D02*
Y292981D01*
Y281643D02*
X456201D01*
X549705Y197638D02*
Y243307D01*
X521161Y197638D02*
Y243307D01*
X549705D01*
X521161Y197638D02*
X549705D01*
X516535Y245571D02*
X562205D01*
X516535Y274114D02*
X562205D01*
Y245571D02*
Y274114D01*
X516535Y245571D02*
Y274114D01*
X591535Y364764D02*
Y408701D01*
X557677D02*
X591535D01*
X557677Y364764D02*
Y408701D01*
Y364764D02*
X591535D01*
X244626Y305925D02*
X259311D01*
X244626Y261004D02*
Y305925D01*
Y261004D02*
X259311D01*
Y305925D01*
D20*
X570866Y472441D02*
D03*
Y177165D02*
D03*
X216535D02*
D03*
Y472441D02*
D03*
D21*
X537402Y325672D02*
D03*
D22*
X566929D02*
D03*
D23*
X482283Y377953D02*
D03*
X423228D02*
D03*
D24*
X494094Y293307D02*
D03*
Y228346D02*
D03*
Y330709D02*
D03*
X411417D02*
D03*
Y228346D02*
D03*
Y279528D02*
D03*
D25*
X574803Y397953D02*
D03*
D26*
Y377953D02*
D03*
D27*
X424055Y413681D02*
D03*
X444055D02*
D03*
X464055D02*
D03*
D28*
X484055D02*
D03*
D29*
X271654Y232283D02*
D03*
X212598D02*
D03*
X366142Y389764D02*
D03*
Y330709D02*
D03*
D30*
X299213Y283465D02*
D03*
X374016D02*
D03*
X299213Y244094D02*
D03*
X374016D02*
D03*
D31*
X216142Y381890D02*
D03*
X311417D02*
D03*
D32*
X220472Y267717D02*
D03*
Y281496D02*
D03*
Y295276D02*
D03*
D33*
X439961Y275590D02*
D03*
X523032Y286023D02*
D03*
X461614Y260827D02*
D03*
X449803Y236221D02*
D03*
X551400Y226200D02*
D03*
D34*
X552199Y279806D02*
D03*
X544719D02*
D03*
X537615D02*
D03*
X530135D02*
D03*
X523032D02*
D03*
X515551D02*
D03*
D35*
X454123Y243340D02*
D03*
X441525D02*
D03*
D36*
X468521Y275187D02*
D03*
Y267707D02*
D03*
D37*
X461336Y282595D02*
D03*
Y290076D02*
D03*
D38*
X469308Y260603D02*
D03*
Y248792D02*
D03*
X436204Y258480D02*
D03*
Y270291D02*
D03*
D39*
X434579Y244094D02*
D03*
Y250983D02*
D03*
D40*
X445256Y253102D02*
D03*
X450256D02*
D03*
X455256D02*
D03*
X460256D02*
D03*
Y274457D02*
D03*
X455256D02*
D03*
X450256D02*
D03*
X445256D02*
D03*
D41*
X444806Y291328D02*
D03*
Y283454D02*
D03*
D42*
X452854Y284123D02*
D03*
Y290501D02*
D03*
M02*
