G04 Layer_Physical_Order=1*
G04 Layer_Color=255*
%FSLAX25Y25*%
%MOIN*%
G70*
G01*
G75*
%ADD10R,0.21850X0.30315*%
%ADD11R,0.04921X0.10630*%
%ADD12R,0.26772X0.21850*%
%ADD13R,0.11811X0.03937*%
%ADD14R,0.12717X0.08504*%
%ADD15C,0.01000*%
%ADD16C,0.01969*%
%ADD17C,0.00394*%
%ADD18C,0.00787*%
%ADD19C,0.00197*%
%ADD20C,0.19685*%
%ADD21C,0.05906*%
%ADD22R,0.05906X0.05906*%
%ADD23C,0.05500*%
%ADD24C,0.15748*%
%ADD25C,0.08563*%
%ADD26R,0.08563X0.08563*%
%ADD27C,0.09331*%
%ADD28R,0.09331X0.09331*%
%ADD29C,0.05437*%
%ADD30C,0.05512*%
%ADD31C,0.14173*%
%ADD32C,0.07677*%
%ADD33C,0.05000*%
G36*
X597458Y487975D02*
Y155118D01*
X198031D01*
Y491159D01*
X594274D01*
X597458Y487975D01*
D02*
G37*
%LPC*%
G36*
X570866Y482765D02*
X568194Y482414D01*
X565704Y481382D01*
X563566Y479742D01*
X561925Y477603D01*
X560893Y475113D01*
X560542Y472441D01*
X560893Y469769D01*
X561925Y467279D01*
X563566Y465140D01*
X565704Y463500D01*
X568194Y462468D01*
X570866Y462116D01*
X573538Y462468D01*
X576028Y463500D01*
X578167Y465140D01*
X579808Y467279D01*
X580839Y469769D01*
X581191Y472441D01*
X580839Y475113D01*
X579808Y477603D01*
X578167Y479742D01*
X576028Y481382D01*
X573538Y482414D01*
X570866Y482765D01*
D02*
G37*
G36*
X216535D02*
X213863Y482414D01*
X211373Y481382D01*
X209235Y479742D01*
X207594Y477603D01*
X206563Y475113D01*
X206211Y472441D01*
X206563Y469769D01*
X207594Y467279D01*
X209235Y465140D01*
X211373Y463500D01*
X213863Y462468D01*
X216535Y462116D01*
X219208Y462468D01*
X221698Y463500D01*
X223836Y465140D01*
X225477Y467279D01*
X226508Y469769D01*
X226860Y472441D01*
X226508Y475113D01*
X225477Y477603D01*
X223836Y479742D01*
X221698Y481382D01*
X219208Y482414D01*
X216535Y482765D01*
D02*
G37*
G36*
X424555Y419358D02*
Y414181D01*
X429732D01*
X429392Y415892D01*
X428140Y417766D01*
X426266Y419018D01*
X424555Y419358D01*
D02*
G37*
G36*
X423555D02*
X421845Y419018D01*
X419971Y417766D01*
X418719Y415892D01*
X418378Y414181D01*
X423555D01*
Y419358D01*
D02*
G37*
G36*
X464055Y418839D02*
X462081Y418446D01*
X460408Y417328D01*
X459290Y415655D01*
X458897Y413681D01*
X459290Y411707D01*
X460408Y410034D01*
X462081Y408916D01*
X464055Y408523D01*
X466029Y408916D01*
X467703Y410034D01*
X468821Y411707D01*
X469213Y413681D01*
X468821Y415655D01*
X467703Y417328D01*
X466029Y418446D01*
X464055Y418839D01*
D02*
G37*
G36*
X575303Y403238D02*
Y398453D01*
X580089D01*
X579778Y400013D01*
X578611Y401760D01*
X576864Y402928D01*
X575303Y403238D01*
D02*
G37*
G36*
X574303Y403238D02*
X572743Y402928D01*
X570996Y401760D01*
X569828Y400013D01*
X569611Y398920D01*
X566929D01*
X566245Y398637D01*
X566245Y398637D01*
X536718Y369109D01*
X536434Y368425D01*
X536434Y368425D01*
Y329510D01*
X535859Y329396D01*
X534552Y328522D01*
X533678Y327215D01*
X533471Y326172D01*
X537402D01*
X541332D01*
X541125Y327215D01*
X540251Y328522D01*
X538944Y329396D01*
X538369Y329510D01*
Y368024D01*
X567330Y396986D01*
X569611D01*
X569828Y395892D01*
X570996Y394145D01*
X572743Y392978D01*
X574303Y392667D01*
Y397953D01*
Y403238D01*
D02*
G37*
G36*
X580089Y397453D02*
X575303D01*
Y392667D01*
X576864Y392978D01*
X578611Y394145D01*
X579778Y395892D01*
X580089Y397453D01*
D02*
G37*
G36*
X366142Y392937D02*
X364928Y392695D01*
X363898Y392008D01*
X363210Y390978D01*
X362969Y389764D01*
X363210Y388549D01*
X363898Y387520D01*
X364928Y386832D01*
X366142Y386591D01*
X367356Y386832D01*
X368386Y387520D01*
X369073Y388549D01*
X369315Y389764D01*
X369073Y390978D01*
X368386Y392008D01*
X367356Y392695D01*
X366142Y392937D01*
D02*
G37*
G36*
X429732Y413181D02*
X418378D01*
X418719Y411471D01*
X419971Y409596D01*
X421845Y408344D01*
X422261Y408261D01*
Y381584D01*
X421765Y381485D01*
X420525Y380656D01*
X419696Y379416D01*
X419504Y378453D01*
X423228D01*
X426952D01*
X426761Y379416D01*
X425932Y380656D01*
X424692Y381485D01*
X424196Y381584D01*
Y407933D01*
X426266Y408344D01*
X428140Y409596D01*
X429392Y411471D01*
X429732Y413181D01*
D02*
G37*
G36*
X216142Y389517D02*
X213223Y388936D01*
X210749Y387283D01*
X209096Y384808D01*
X208515Y381890D01*
X209096Y378971D01*
X210749Y376497D01*
X213223Y374844D01*
X216142Y374263D01*
X219060Y374844D01*
X221535Y376497D01*
X223188Y378971D01*
X223769Y381890D01*
X223188Y384808D01*
X221535Y387283D01*
X219060Y388936D01*
X216142Y389517D01*
D02*
G37*
G36*
X426952Y377453D02*
X423728D01*
Y374229D01*
X424692Y374420D01*
X425932Y375249D01*
X426761Y376490D01*
X426952Y377453D01*
D02*
G37*
G36*
X422728D02*
X419504D01*
X419696Y376490D01*
X420525Y375249D01*
X421765Y374420D01*
X422728Y374229D01*
Y377453D01*
D02*
G37*
G36*
X579478Y382628D02*
X570128D01*
Y379444D01*
X566929D01*
X565875Y379007D01*
X565438Y377953D01*
Y329019D01*
X563583D01*
Y324435D01*
X546780Y307632D01*
X546343Y306578D01*
X546343Y306578D01*
Y271162D01*
X534055D01*
Y248524D01*
X561614D01*
Y271162D01*
X549326D01*
Y305960D01*
X565692Y322326D01*
X570276D01*
Y329019D01*
X568421D01*
Y376461D01*
X570128D01*
Y373278D01*
X579478D01*
Y382628D01*
D02*
G37*
G36*
X444055Y418839D02*
X442081Y418446D01*
X440408Y417328D01*
X439290Y415655D01*
X438897Y413681D01*
X439290Y411707D01*
X440408Y410034D01*
X442081Y408916D01*
X443088Y408715D01*
Y388157D01*
X386607Y331676D01*
X369123D01*
X369073Y331923D01*
X368386Y332952D01*
X367356Y333640D01*
X366142Y333882D01*
X364928Y333640D01*
X363898Y332952D01*
X363210Y331923D01*
X362969Y330709D01*
X363210Y329494D01*
X363898Y328465D01*
X364928Y327777D01*
X366142Y327535D01*
X367356Y327777D01*
X367565Y327917D01*
X377133Y318350D01*
Y285369D01*
X376633Y285217D01*
X376287Y285735D01*
X375245Y286431D01*
X374016Y286676D01*
X372787Y286431D01*
X372565Y286283D01*
X311597Y347251D01*
Y374299D01*
X314336Y374844D01*
X316810Y376497D01*
X318464Y378971D01*
X319044Y381890D01*
X318464Y384808D01*
X316810Y387283D01*
X314336Y388936D01*
X311417Y389517D01*
X308499Y388936D01*
X306024Y387283D01*
X304371Y384808D01*
X303790Y381890D01*
X304371Y378971D01*
X306024Y376497D01*
X308499Y374844D01*
X309663Y374612D01*
Y346850D01*
X309663Y346850D01*
X309946Y346166D01*
X371197Y284915D01*
X371049Y284694D01*
X370805Y283465D01*
X371049Y282236D01*
X371745Y281194D01*
X372787Y280498D01*
X374016Y280253D01*
X375245Y280498D01*
X376287Y281194D01*
X376633Y281712D01*
X377133Y281560D01*
Y248579D01*
X375466Y246913D01*
X375245Y247061D01*
X374016Y247306D01*
X372787Y247061D01*
X371745Y246365D01*
X371049Y245323D01*
X370805Y244094D01*
X371049Y242865D01*
X371745Y241824D01*
X372787Y241128D01*
X374016Y240883D01*
X375245Y241128D01*
X376287Y241824D01*
X376983Y242865D01*
X377227Y244094D01*
X376983Y245323D01*
X376835Y245545D01*
X378784Y247495D01*
X378784Y247495D01*
X379067Y248179D01*
X379067Y248179D01*
Y318750D01*
X379067Y318750D01*
X378784Y319434D01*
X378784Y319434D01*
X368934Y329285D01*
X369073Y329494D01*
X369123Y329741D01*
X387008D01*
X387008Y329741D01*
X387692Y330025D01*
X444739Y387072D01*
X444739Y387072D01*
X445022Y387756D01*
Y408715D01*
X446029Y408916D01*
X447703Y410034D01*
X448821Y411707D01*
X449213Y413681D01*
X448821Y415655D01*
X447703Y417328D01*
X446029Y418446D01*
X444055Y418839D01*
D02*
G37*
G36*
X489114Y418740D02*
X478996D01*
Y408622D01*
X480792D01*
Y380737D01*
X480017Y380219D01*
X479322Y379179D01*
X479078Y377953D01*
X479322Y376726D01*
X480017Y375686D01*
X480792Y375168D01*
Y342520D01*
X480792Y342520D01*
X481229Y341465D01*
X487282Y335412D01*
X486873Y334878D01*
X486039Y332867D01*
X485755Y330709D01*
X486039Y328550D01*
X486873Y326539D01*
X488198Y324812D01*
X489925Y323487D01*
X491936Y322654D01*
X494094Y322370D01*
X496253Y322654D01*
X498264Y323487D01*
X499991Y324812D01*
X501316Y326539D01*
X502149Y328550D01*
X502433Y330709D01*
X502149Y332867D01*
X501316Y334878D01*
X499991Y336605D01*
X498264Y337930D01*
X496253Y338763D01*
X494094Y339048D01*
X491936Y338763D01*
X489925Y337930D01*
X489391Y337521D01*
X483775Y343137D01*
Y375168D01*
X484550Y375686D01*
X485245Y376726D01*
X485489Y377953D01*
X485245Y379179D01*
X484550Y380219D01*
X483775Y380737D01*
Y408622D01*
X489114D01*
Y418740D01*
D02*
G37*
G36*
X541332Y325172D02*
X537902D01*
Y321742D01*
X538944Y321949D01*
X540251Y322822D01*
X541125Y324130D01*
X541332Y325172D01*
D02*
G37*
G36*
X536902D02*
X533471D01*
X533678Y324130D01*
X534552Y322822D01*
X535859Y321949D01*
X536902Y321742D01*
Y325172D01*
D02*
G37*
G36*
X258721Y305335D02*
X245217D01*
Y296243D01*
X224595D01*
X224459Y296927D01*
X223524Y298327D01*
X222124Y299262D01*
X220472Y299591D01*
X218821Y299262D01*
X217421Y298327D01*
X216486Y296927D01*
X216157Y295276D01*
X216486Y293624D01*
X217421Y292224D01*
X218821Y291289D01*
X220472Y290960D01*
X222124Y291289D01*
X223524Y292224D01*
X224459Y293624D01*
X224595Y294308D01*
X246555D01*
X246555Y294308D01*
X247239Y294592D01*
X248691Y296043D01*
X258721D01*
Y305335D01*
D02*
G37*
G36*
X494094Y301646D02*
X491936Y301362D01*
X489925Y300529D01*
X488198Y299204D01*
X486873Y297477D01*
X486039Y295465D01*
X485755Y293307D01*
X486039Y291149D01*
X486873Y289138D01*
X488198Y287410D01*
X489925Y286085D01*
X491936Y285252D01*
X494094Y284968D01*
X496253Y285252D01*
X498264Y286085D01*
X499991Y287410D01*
X501316Y289138D01*
X502149Y291149D01*
X502433Y293307D01*
X502149Y295465D01*
X501316Y297477D01*
X499991Y299204D01*
X498264Y300529D01*
X496253Y301362D01*
X494094Y301646D01*
D02*
G37*
G36*
X523032Y288974D02*
X521903Y288749D01*
X520945Y288110D01*
X520306Y287153D01*
X520081Y286023D01*
X520306Y284894D01*
X520397Y284757D01*
X519088Y283448D01*
X446850D01*
X446166Y283164D01*
X446166Y283164D01*
X441227Y278225D01*
X441090Y278316D01*
X439961Y278541D01*
X438832Y278316D01*
X437874Y277677D01*
X437235Y276720D01*
X437010Y275590D01*
X437235Y274462D01*
X437874Y273504D01*
X438832Y272865D01*
X439961Y272640D01*
X441090Y272865D01*
X442047Y273504D01*
X442686Y274462D01*
X442911Y275590D01*
X442686Y276720D01*
X442595Y276857D01*
X447251Y281513D01*
X519488D01*
X519488Y281513D01*
X520172Y281796D01*
X521765Y283389D01*
X521903Y283298D01*
X523032Y283073D01*
X524161Y283298D01*
X525118Y283937D01*
X525757Y284894D01*
X525982Y286023D01*
X525757Y287153D01*
X525118Y288110D01*
X524161Y288749D01*
X523032Y288974D01*
D02*
G37*
G36*
X299213Y286676D02*
X297984Y286431D01*
X296942Y285735D01*
X296246Y284694D01*
X296001Y283465D01*
X296246Y282236D01*
X296394Y282014D01*
X281588Y267208D01*
X258721D01*
Y270886D01*
X245217D01*
Y261595D01*
X251001D01*
Y251968D01*
X251001Y251968D01*
X251285Y251284D01*
X268862Y233707D01*
X268722Y233498D01*
X268480Y232283D01*
X268722Y231069D01*
X269410Y230040D01*
X270439Y229352D01*
X271654Y229110D01*
X272868Y229352D01*
X273897Y230040D01*
X274585Y231069D01*
X274827Y232283D01*
X274585Y233498D01*
X273897Y234527D01*
X272868Y235215D01*
X271654Y235457D01*
X270439Y235215D01*
X270230Y235075D01*
X252936Y252369D01*
Y261595D01*
X258721D01*
Y265273D01*
X281988D01*
X281988Y265273D01*
X282672Y265556D01*
X297762Y280646D01*
X297984Y280498D01*
X299213Y280253D01*
X300442Y280498D01*
X301483Y281194D01*
X302179Y282236D01*
X302424Y283465D01*
X302179Y284694D01*
X301483Y285735D01*
X300442Y286431D01*
X299213Y286676D01*
D02*
G37*
G36*
X220472Y285811D02*
X218821Y285483D01*
X217421Y284547D01*
X216486Y283147D01*
X216157Y281496D01*
X216486Y279845D01*
X216873Y279265D01*
X211914Y274306D01*
X211631Y273622D01*
X211631Y273622D01*
Y235264D01*
X211384Y235215D01*
X210355Y234527D01*
X209667Y233498D01*
X209425Y232283D01*
X209667Y231069D01*
X210355Y230040D01*
X211384Y229352D01*
X212598Y229110D01*
X213813Y229352D01*
X214842Y230040D01*
X215530Y231069D01*
X215772Y232283D01*
X215530Y233498D01*
X214842Y234527D01*
X213813Y235215D01*
X213566Y235264D01*
Y273221D01*
X218241Y277897D01*
X218821Y277509D01*
X220472Y277181D01*
X222124Y277509D01*
X223524Y278445D01*
X224459Y279845D01*
X224788Y281496D01*
X224459Y283147D01*
X223524Y284547D01*
X222124Y285483D01*
X220472Y285811D01*
D02*
G37*
G36*
X411417Y287867D02*
X409259Y287582D01*
X407248Y286749D01*
X405521Y285424D01*
X404196Y283697D01*
X403363Y281686D01*
X403078Y279528D01*
X403363Y277369D01*
X404196Y275358D01*
X405521Y273631D01*
X407248Y272306D01*
X409259Y271473D01*
X411417Y271188D01*
X413576Y271473D01*
X415587Y272306D01*
X417314Y273631D01*
X418639Y275358D01*
X419472Y277369D01*
X419757Y279528D01*
X419472Y281686D01*
X418639Y283697D01*
X417314Y285424D01*
X415587Y286749D01*
X413576Y287582D01*
X411417Y287867D01*
D02*
G37*
G36*
X529169Y271205D02*
X516571D01*
Y266480D01*
X529169D01*
Y271205D01*
D02*
G37*
G36*
X220472Y272032D02*
X218821Y271703D01*
X217421Y270768D01*
X216486Y269368D01*
X216157Y267717D01*
X216486Y266065D01*
X217421Y264665D01*
X218821Y263730D01*
X220472Y263401D01*
X222124Y263730D01*
X223524Y264665D01*
X224459Y266065D01*
X224788Y267717D01*
X224459Y269368D01*
X223524Y270768D01*
X222124Y271703D01*
X220472Y272032D01*
D02*
G37*
G36*
X411417Y339048D02*
X409259Y338763D01*
X407248Y337930D01*
X405521Y336605D01*
X404196Y334878D01*
X403363Y332867D01*
X403078Y330709D01*
X403363Y328550D01*
X404196Y326539D01*
X405521Y324812D01*
X407248Y323487D01*
X409259Y322654D01*
X410450Y322497D01*
Y296260D01*
X410450Y296260D01*
X410733Y295576D01*
X446166Y260143D01*
X446850Y259859D01*
X446850Y259859D01*
X458856D01*
X458888Y259698D01*
X459528Y258740D01*
X460485Y258101D01*
X461614Y257876D01*
X462743Y258101D01*
X463700Y258740D01*
X464340Y259698D01*
X464565Y260827D01*
X464340Y261956D01*
X463700Y262913D01*
X462743Y263553D01*
X461614Y263777D01*
X460485Y263553D01*
X459528Y262913D01*
X458888Y261956D01*
X458856Y261794D01*
X447251D01*
X412385Y296660D01*
Y322497D01*
X413576Y322654D01*
X415587Y323487D01*
X417314Y324812D01*
X418639Y326539D01*
X419472Y328550D01*
X419757Y330709D01*
X419472Y332867D01*
X418639Y334878D01*
X417314Y336605D01*
X415587Y337930D01*
X413576Y338763D01*
X411417Y339048D01*
D02*
G37*
G36*
X299213Y247306D02*
X297984Y247061D01*
X296942Y246365D01*
X296246Y245323D01*
X296001Y244094D01*
X296246Y242865D01*
X296942Y241824D01*
X297984Y241128D01*
X299213Y240883D01*
X300442Y241128D01*
X301483Y241824D01*
X302179Y242865D01*
X302424Y244094D01*
X302179Y245323D01*
X301483Y246365D01*
X300442Y247061D01*
X299213Y247306D01*
D02*
G37*
G36*
X529169Y253205D02*
X516571D01*
Y248480D01*
X526068D01*
Y242717D01*
X524114D01*
Y229838D01*
X502237D01*
X502149Y230505D01*
X501316Y232516D01*
X499991Y234243D01*
X498264Y235568D01*
X496253Y236401D01*
X494094Y236685D01*
X491936Y236401D01*
X489925Y235568D01*
X488198Y234243D01*
X486873Y232516D01*
X486039Y230505D01*
X485755Y228346D01*
X486039Y226188D01*
X486873Y224177D01*
X488198Y222450D01*
X489925Y221125D01*
X491936Y220291D01*
X494094Y220007D01*
X496253Y220291D01*
X498264Y221125D01*
X499991Y222450D01*
X501316Y224177D01*
X502149Y226188D01*
X502237Y226855D01*
X524114D01*
Y211614D01*
X546752D01*
Y242717D01*
X529050D01*
Y248480D01*
X529169D01*
Y253205D01*
D02*
G37*
G36*
X411917Y237231D02*
Y228846D01*
X420302D01*
X420063Y230663D01*
X419169Y232822D01*
X417746Y234675D01*
X415893Y236098D01*
X413734Y236992D01*
X411917Y237231D01*
D02*
G37*
G36*
X410917D02*
X409101Y236992D01*
X406942Y236098D01*
X405088Y234675D01*
X403666Y232822D01*
X402772Y230663D01*
X402533Y228846D01*
X410917D01*
Y237231D01*
D02*
G37*
G36*
X420302Y227846D02*
X411917D01*
Y219462D01*
X413734Y219701D01*
X415893Y220595D01*
X417746Y222017D01*
X419169Y223871D01*
X420063Y226030D01*
X420302Y227846D01*
D02*
G37*
G36*
X410917D02*
X402533D01*
X402772Y226030D01*
X403666Y223871D01*
X405088Y222017D01*
X406942Y220595D01*
X409101Y219701D01*
X410917Y219462D01*
Y227846D01*
D02*
G37*
G36*
X551400Y229150D02*
X550271Y228926D01*
X549314Y228286D01*
X548674Y227329D01*
X548450Y226200D01*
X548674Y225071D01*
X549314Y224114D01*
X550271Y223474D01*
X551400Y223250D01*
X552071Y223383D01*
X552458Y223066D01*
Y209646D01*
X550571D01*
Y198228D01*
X556280D01*
Y209646D01*
X554392D01*
Y224175D01*
X554392Y224175D01*
X554109Y224859D01*
X554126Y225071D01*
X554350Y226200D01*
X554126Y227329D01*
X553486Y228286D01*
X552529Y228926D01*
X551400Y229150D01*
D02*
G37*
G36*
X449803Y239171D02*
X448674Y238946D01*
X447717Y238307D01*
X447077Y237350D01*
X446853Y236221D01*
X447077Y235091D01*
X447717Y234134D01*
X448674Y233495D01*
X449803Y233270D01*
X450932Y233495D01*
X451069Y233586D01*
X481403Y203253D01*
X481403Y203253D01*
X482087Y202970D01*
X482087Y202970D01*
X514587D01*
Y198228D01*
X520295D01*
Y209646D01*
X514587D01*
Y204904D01*
X482487D01*
X452437Y234954D01*
X452529Y235091D01*
X452753Y236221D01*
X452529Y237350D01*
X451889Y238307D01*
X450932Y238946D01*
X449803Y239171D01*
D02*
G37*
G36*
X570866Y187490D02*
X568194Y187138D01*
X565704Y186107D01*
X563566Y184466D01*
X561925Y182328D01*
X560893Y179838D01*
X560542Y177165D01*
X560893Y174493D01*
X561925Y172003D01*
X563566Y169865D01*
X565704Y168224D01*
X568194Y167193D01*
X570866Y166841D01*
X573538Y167193D01*
X576028Y168224D01*
X578167Y169865D01*
X579808Y172003D01*
X580839Y174493D01*
X581191Y177165D01*
X580839Y179838D01*
X579808Y182328D01*
X578167Y184466D01*
X576028Y186107D01*
X573538Y187138D01*
X570866Y187490D01*
D02*
G37*
G36*
X216535D02*
X213863Y187138D01*
X211373Y186107D01*
X209235Y184466D01*
X207594Y182328D01*
X206563Y179838D01*
X206211Y177165D01*
X206563Y174493D01*
X207594Y172003D01*
X209235Y169865D01*
X211373Y168224D01*
X213863Y167193D01*
X216535Y166841D01*
X219208Y167193D01*
X221698Y168224D01*
X223836Y169865D01*
X225477Y172003D01*
X226508Y174493D01*
X226860Y177165D01*
X226508Y179838D01*
X225477Y182328D01*
X223836Y184466D01*
X221698Y186107D01*
X219208Y187138D01*
X216535Y187490D01*
D02*
G37*
%LPD*%
D10*
X535433Y227165D02*
D03*
D11*
X553425Y203937D02*
D03*
X517441D02*
D03*
D12*
X547835Y259843D02*
D03*
D13*
X522870Y250843D02*
D03*
Y268843D02*
D03*
D14*
X251969Y266240D02*
D03*
Y300689D02*
D03*
D15*
X310630Y381102D02*
X311417Y381890D01*
X310630Y346850D02*
Y381102D01*
Y346850D02*
X374016Y283465D01*
X444055Y387756D02*
Y413681D01*
X387008Y330709D02*
X444055Y387756D01*
X366142Y330709D02*
X387008D01*
X519488Y282480D02*
X523032Y286023D01*
X446850Y282480D02*
X519488D01*
X439961Y275590D02*
X446850Y282480D01*
X446850Y260827D02*
X461614D01*
X411417Y296260D02*
X446850Y260827D01*
X411417Y296260D02*
Y330709D01*
X482087Y203937D02*
X517441D01*
X449803Y236221D02*
X482087Y203937D01*
X424055Y412244D02*
Y413681D01*
X423228Y411417D02*
X424055Y412244D01*
X423228Y377953D02*
Y411417D01*
X566929Y397953D02*
X574803D01*
X196850Y492126D02*
X598425D01*
Y153543D02*
Y492126D01*
X196850Y153543D02*
X598425D01*
X212598Y232283D02*
Y273622D01*
X220472Y281496D01*
X374016Y244094D02*
X378100Y248179D01*
Y318750D01*
X366142Y330709D02*
X378100Y318750D01*
X551400Y226200D02*
X553425Y224175D01*
Y203937D02*
Y224175D01*
X251969Y251968D02*
X271654Y232283D01*
X251969Y251968D02*
Y266240D01*
X281988D01*
X299213Y283465D01*
X537402Y325672D02*
Y368425D01*
X566929Y397953D01*
X220472Y295276D02*
X246555D01*
X251969Y300689D01*
X196850Y153543D02*
Y492126D01*
D16*
X528740Y227165D02*
X535433D01*
X527559Y228346D02*
X528740Y227165D01*
X494094Y228346D02*
X527559D01*
X527559Y236221D02*
Y250843D01*
X522870D02*
X527559D01*
X535433Y227165D02*
Y236221D01*
X527559D02*
X535433D01*
X482283Y411909D02*
X484055Y413681D01*
X482283Y377953D02*
Y411909D01*
X566929Y377953D02*
X574803D01*
X547835Y259843D02*
Y306578D01*
X566929Y325672D01*
Y377953D01*
X482283Y342520D02*
X494094Y330709D01*
X482283Y342520D02*
Y377953D01*
D17*
X588091Y325672D02*
G03*
X588091Y325672I-35925J0D01*
G01*
X544522Y282267D02*
X552396D01*
X544522Y277345D02*
Y282267D01*
Y277345D02*
X552396D01*
Y282267D01*
X529938D02*
X537812D01*
X529938Y277345D02*
Y282267D01*
Y277345D02*
X537812D01*
Y282267D01*
X515354D02*
X523228D01*
X515354Y277345D02*
Y282267D01*
Y277345D02*
X523228D01*
Y282267D01*
X441525Y240190D02*
Y246489D01*
X454123D01*
Y240190D02*
Y246489D01*
X441525Y240190D02*
X454123D01*
X466060Y267510D02*
X470981D01*
X466060D02*
Y275384D01*
X470981D01*
Y267510D02*
Y275384D01*
X463796Y282399D02*
Y290273D01*
X458875D02*
X463796D01*
X458875Y282399D02*
Y290273D01*
Y282399D02*
X463796D01*
X466158Y248497D02*
Y260899D01*
Y248497D02*
X472458D01*
Y260899D01*
X466158D02*
X472458D01*
X437433Y243208D02*
Y251869D01*
X431724Y243208D02*
Y251869D01*
Y243208D02*
X437433D01*
X431724Y251869D02*
X437433D01*
X439353Y258185D02*
Y270587D01*
X433054D02*
X439353D01*
X433054Y258185D02*
Y270587D01*
Y258185D02*
X439353D01*
X443110Y266457D02*
X448110Y271457D01*
X443110D02*
X462402D01*
Y256102D02*
Y271457D01*
X443110Y256102D02*
X462402D01*
X443110D02*
Y271457D01*
X442345Y283454D02*
X447267D01*
X442345D02*
Y291328D01*
X447267D01*
Y283454D02*
Y291328D01*
X455315Y283375D02*
Y291249D01*
X450394D02*
X455315D01*
X450394Y283375D02*
Y291249D01*
Y283375D02*
X455315D01*
X548720Y212008D02*
Y236496D01*
X522146Y212008D02*
Y236496D01*
X548720D01*
X522146Y212008D02*
X548720D01*
X529331Y246555D02*
X553819D01*
X529331Y273130D02*
X553819D01*
Y246555D02*
Y273130D01*
X529331Y246555D02*
Y273130D01*
X590551Y365748D02*
Y407717D01*
X558661D02*
X590551D01*
X558661Y365748D02*
Y407717D01*
Y365748D02*
X590551D01*
X245827Y303346D02*
X258110D01*
X245827Y263583D02*
Y303346D01*
Y263583D02*
X258110D01*
Y303346D01*
X432610Y247538D02*
X436547D01*
X434579Y245570D02*
Y249507D01*
X533465Y220472D02*
X537402D01*
X535433Y218504D02*
Y222441D01*
X414370Y364173D02*
X491142D01*
X414370D02*
Y391732D01*
X491142D01*
Y364173D02*
Y391732D01*
X539370Y257874D02*
Y261811D01*
X537402Y259843D02*
X541339D01*
X406811Y403839D02*
Y425492D01*
Y403839D02*
X501299D01*
Y425492D01*
X406811D02*
X501299D01*
X204331Y210630D02*
X279921D01*
X204331D02*
Y253937D01*
X279921D01*
Y210630D02*
Y253937D01*
X389764Y210630D02*
Y316929D01*
X283465Y210630D02*
X389764D01*
X283465D02*
Y316929D01*
X389764D01*
X387795Y322441D02*
Y398032D01*
X344488Y322441D02*
X387795D01*
X344488D02*
Y398032D01*
X387795D01*
X322835Y322835D02*
Y440945D01*
X204724D02*
X322835D01*
X204724Y322835D02*
Y440945D01*
Y322835D02*
X322835D01*
X203150Y306102D02*
X240157D01*
X203150Y256890D02*
Y306102D01*
Y256890D02*
X240157D01*
Y306102D01*
D18*
X336614Y312992D02*
G03*
X336614Y214567I0J-49213D01*
G01*
D02*
G03*
X336614Y312992I0J49213D01*
G01*
X208661Y381890D02*
G03*
X318898Y381890I55118J0D01*
G01*
D02*
G03*
X208661Y381890I-55118J0D01*
G01*
X418307Y368110D02*
X487205D01*
X418307D02*
Y387795D01*
X487205D01*
Y368110D02*
Y387795D01*
X410748Y407776D02*
Y421555D01*
Y407776D02*
X497362D01*
Y421555D01*
X410748D02*
X497362D01*
X206299Y212598D02*
X277953D01*
X206299D02*
Y251969D01*
X277953D01*
Y212598D02*
Y251969D01*
X385827Y324409D02*
Y396063D01*
X346457Y324409D02*
X385827D01*
X346457D02*
Y396063D01*
X385827D01*
X207087Y302165D02*
X236220D01*
X207087Y260827D02*
Y302165D01*
Y260827D02*
X236220D01*
Y302165D01*
D19*
X590059Y325672D02*
G03*
X590059Y325672I-37894J0D01*
G01*
X541766Y283743D02*
X555152D01*
X541766Y275869D02*
Y283743D01*
Y275869D02*
X555152D01*
Y283743D01*
X527182D02*
X540568D01*
X527182Y275869D02*
Y283743D01*
Y275869D02*
X540568D01*
Y283743D01*
X512598D02*
X525984D01*
X512598Y275869D02*
Y283743D01*
Y275869D02*
X525984D01*
Y283743D01*
X439714Y239166D02*
Y247513D01*
X455934D01*
Y239166D02*
Y247513D01*
X439714Y239166D02*
X455934D01*
X464781Y264852D02*
X472261D01*
X464781D02*
Y278041D01*
X472261D01*
Y264852D02*
Y278041D01*
X465273Y279643D02*
Y293029D01*
X457399D02*
X465273D01*
X457399Y279643D02*
Y293029D01*
Y279643D02*
X465273D01*
X464781Y245741D02*
Y263655D01*
Y245741D02*
X473836D01*
Y263655D01*
X464781D02*
X473836D01*
X438516Y240845D02*
Y254231D01*
X430642Y240845D02*
Y254231D01*
Y240845D02*
X438516D01*
X430642Y254231D02*
X438516D01*
X440731Y255429D02*
Y273343D01*
X431676D02*
X440731D01*
X431676Y255429D02*
Y273343D01*
Y255429D02*
X440731D01*
X441929Y278445D02*
X463583D01*
Y249114D02*
Y278445D01*
X441929Y249114D02*
X463583D01*
X441929D02*
Y278445D01*
X441302Y281643D02*
X448310D01*
X441302D02*
Y293139D01*
X448310D01*
Y281643D02*
Y293139D01*
X456201Y281643D02*
Y292981D01*
X449508D02*
X456201D01*
X449508Y281643D02*
Y292981D01*
Y281643D02*
X456201D01*
X549705Y197638D02*
Y243307D01*
X521161Y197638D02*
Y243307D01*
X549705D01*
X521161Y197638D02*
X549705D01*
X516535Y245571D02*
X562205D01*
X516535Y274114D02*
X562205D01*
Y245571D02*
Y274114D01*
X516535Y245571D02*
Y274114D01*
X591535Y364764D02*
Y408701D01*
X557677D02*
X591535D01*
X557677Y364764D02*
Y408701D01*
Y364764D02*
X591535D01*
X244626Y305925D02*
X259311D01*
X244626Y261004D02*
Y305925D01*
Y261004D02*
X259311D01*
Y305925D01*
D20*
X570866Y472441D02*
D03*
Y177165D02*
D03*
X216535D02*
D03*
Y472441D02*
D03*
D21*
X537402Y325672D02*
D03*
D22*
X566929D02*
D03*
D23*
X482283Y377953D02*
D03*
X423228D02*
D03*
D24*
X494094Y293307D02*
D03*
Y228346D02*
D03*
Y330709D02*
D03*
X411417D02*
D03*
Y228346D02*
D03*
Y279528D02*
D03*
D25*
X574803Y397953D02*
D03*
D26*
Y377953D02*
D03*
D27*
X424055Y413681D02*
D03*
X444055D02*
D03*
X464055D02*
D03*
D28*
X484055D02*
D03*
D29*
X271654Y232283D02*
D03*
X212598D02*
D03*
X366142Y389764D02*
D03*
Y330709D02*
D03*
D30*
X299213Y283465D02*
D03*
X374016D02*
D03*
X299213Y244094D02*
D03*
X374016D02*
D03*
D31*
X216142Y381890D02*
D03*
X311417D02*
D03*
D32*
X220472Y267717D02*
D03*
Y281496D02*
D03*
Y295276D02*
D03*
D33*
X439961Y275590D02*
D03*
X523032Y286023D02*
D03*
X461614Y260827D02*
D03*
X449803Y236221D02*
D03*
X551400Y226200D02*
D03*
M02*
